,
Brought to you by  http://www.scenetime.com/signup.php
 
 Hottest scene tracker on the net !!!   
 
No fake torrents from scenebalance 
shame on those who comment fake before downloading my torrents

    seed back for speed


 



...................................NFO:.................................................The.Taint.2011.DVDRiP.XVID.AC3-XtremE

[img]http://img101.imageshack.us/img101/7681/thetaintposter.jpg[/img]

IMDB Link
http://www.imdb.com/title/tt1667133/


Trailer

Description:

The water is tainted. The Taint poisons the minds of men. It turns them into raging misogynists: monsters who want nothing more than to crush women's heads with rocks (or other objects). When society is transformed into a land of sadistic violence and horrible brutality, it is up to Phil O'Ginny and his hot friend, Misandra, to combat the horrible evil that is The Taint. Can they survive a world brimming with castration and endless head crushing?! 

Cast:

Director:
Drew Bolduc, Dan Nelson
Writer: Drew Bolduc, Dan Nelson
Stars:
Drew Bolduc


Screenshots
[img]http://leetleech.org/images/50633389762252366260.jpg[/img]
[img]http://leetleech.org/images/17429252007196656054.jpg[/img]
[img]http://leetleech.org/images/64809496881895491003.jpg[/img]
[img]http://leetleech.org/images/80647542245186931473.jpg[/img]
[img]http://leetleech.org/images/97958889601053622518.jpg[/img]


General
Complete name                    : The.Taint.2010.DVDRiP.XviD-XtremE.avi
Format                           : AVI
Format/Info                      : Audio Video Interleave
File size                        : 1.00 GiB
Duration                         : 1h 9mn
Overall bit rate                 : 2 049 Kbps
Writing application              : VirtualDubMod 1.5.4.1 (build 2178/release)
Writing library                  : VirtualDubMod build 2178/release

Video
ID                               : 0
Format                           : MPEG-4 Visual
Format profile                   : Advanced Simple@L5
Format settings, BVOP            : 1
Format settings, QPel            : No
Format settings, GMC             : No warppoints
Format settings, Matrix          : Custom
Codec ID                         : XVID
Codec ID/Hint                    : XviD
Duration                         : 1h 9mn
Bit rate                         : 1 850 Kbps
Width                            : 720 pixels
Height                           : 416 pixels
Display aspect ratio             : 16:9
Frame rate                       : 23.976 fps
Color space                      : YUV
Chroma subsampling               : 4:2:0
Bit depth                        : 8 bits
Scan type                        : Progressive
Compression mode                 : Lossy
Bits/(Pixel*Frame)               : 0.258
Stream size                      : 925 MiB (90%)
Writing library                  : XviD 63

Audio
ID                               : 1
Format                           : AC-3
Format/Info                      : Audio Coding 3
Mode extension                   : CM (complete main)
Codec ID                         : 2000
Duration                         : 1h 9mn
Bit rate mode                    : Constant
Bit rate                         : 192 Kbps
Channel(s)                       : 2 channels
Channel positions                : Front: L R
Sampling rate                    : 48.0 KHz
Bit depth                        : 16 bits
Compression mode                 : Lossy
Stream size                      : 96.0 MiB (9%)
Alignment                        : Split accross interleaves
Interleave, duration             : 96 ms (2.30 video frames)
Interleave, preload duration     : 96 ms



Note:
Special thanks to our friend.


Encoded and created by thefuzz [XtremE]

  
Enjoy!

Respects to CaptainHomey, Cyanide, CM8, Rx, Pirate666, THC, ELEKTRI4KA and Killerhz